<svg xmlns="http://www.w3.org/2000/svg" xmlns:xlink="http://www.w3.org/1999/xlink" version="1.1" x="0px" y="0px" viewBox="0 0 80 80" enable-background="new 0 0 80 80" xml:space="preserve"><path fill="#000000" d="M71.264,33.878c-1.196-2.826-3.187-5.222-5.694-6.916c-1.254-0.848-2.64-1.52-4.119-1.979  c-1.48-0.461-3.055-0.708-4.675-0.708c-1.106,0-2.183,0.125-3.214,0.361c-1.936,0.44-3.697,1.258-5.289,2.287  c-1.395,0.899-2.669,1.962-3.865,3.11c-1.193,1.151-2.312,2.391-3.386,3.665c0.902,1.104,1.776,2.22,2.628,3.31l0.068,0.088  c0.427,0.546,0.857,1.098,1.292,1.647c0.09-0.111,0.181-0.222,0.271-0.331c0.97-1.179,1.935-2.283,2.898-3.261  c0.723-0.735,1.444-1.398,2.161-1.971c1.078-0.863,2.141-1.519,3.192-1.954c0.527-0.217,1.054-0.38,1.588-0.491  c0.535-0.111,1.081-0.169,1.655-0.169c1.311,0,2.543,0.264,3.67,0.74c1.689,0.713,3.137,1.914,4.155,3.422  c0.509,0.753,0.911,1.582,1.186,2.466c0.275,0.885,0.424,1.823,0.424,2.807c0,1.312-0.264,2.544-0.739,3.672  c-0.715,1.688-1.915,3.137-3.423,4.154c-0.754,0.509-1.583,0.91-2.467,1.186s-1.823,0.424-2.806,0.424l0,0  c-0.632,0-1.229-0.071-1.816-0.204c-0.769-0.176-1.526-0.462-2.29-0.862c-0.254-0.134-0.51-0.279-0.767-0.438  c-0.769-0.475-1.545-1.063-2.325-1.752c-0.293-0.258-0.586-0.529-0.879-0.813c-0.88-0.853-1.762-1.817-2.646-2.854  c-0.737-0.866-1.477-1.781-2.223-2.726c-0.447-0.565-0.896-1.141-1.351-1.722c-1.229-1.572-2.482-3.18-3.804-4.727  c-0.992-1.159-2.021-2.285-3.116-3.335c-0.821-0.788-1.679-1.533-2.588-2.213c-0.17-0.127-0.342-0.252-0.516-0.375  c-1.219-0.86-2.531-1.601-3.957-2.149c-1.322-0.509-2.743-0.845-4.231-0.952c-0.344-0.025-0.69-0.038-1.041-0.037  c-2.162,0-4.239,0.439-6.122,1.236c-2.826,1.197-5.221,3.186-6.916,5.694c-0.847,1.254-1.52,2.64-1.979,4.12  C7.747,36.804,7.5,38.379,7.5,40c0,2.162,0.44,4.239,1.237,6.122c1.196,2.826,3.186,5.221,5.694,6.916  c1.254,0.847,2.64,1.52,4.119,1.98s3.054,0.707,4.675,0.707c1.105,0,2.183-0.126,3.213-0.36c1.936-0.441,3.697-1.259,5.29-2.287  c1.395-0.899,2.668-1.963,3.864-3.111c1.193-1.15,2.312-2.39,3.386-3.665c-0.906-1.109-1.784-2.229-2.64-3.324l-0.057-0.073  c-0.426-0.546-0.857-1.098-1.291-1.647c-0.091,0.11-0.181,0.222-0.271,0.332c-0.971,1.178-1.936,2.282-2.899,3.261  c-0.723,0.734-1.444,1.397-2.161,1.972c-1.077,0.862-2.141,1.519-3.192,1.953c-0.527,0.218-1.053,0.381-1.588,0.492  c-0.535,0.11-1.08,0.169-1.654,0.169c-1.312,0-2.544-0.264-3.671-0.741c-1.689-0.713-3.137-1.913-4.154-3.421  c-0.509-0.754-0.911-1.583-1.187-2.467c-0.274-0.884-0.423-1.823-0.423-2.807c0-1.312,0.264-2.544,0.739-3.672  c0.715-1.689,1.915-3.137,3.423-4.154c0.753-0.51,1.582-0.911,2.466-1.186c0.884-0.275,1.823-0.424,2.807-0.424  c0.632,0,1.229,0.071,1.815,0.204c1.025,0.234,2.03,0.665,3.057,1.3c0.77,0.476,1.546,1.064,2.325,1.753  c1.171,1.031,2.347,2.284,3.526,3.668c1.18,1.384,2.363,2.899,3.572,4.446c1.229,1.572,2.482,3.181,3.804,4.728  c0.992,1.16,2.021,2.285,3.116,3.336c0.205,0.197,0.412,0.391,0.623,0.583c0.631,0.572,1.283,1.119,1.965,1.63  c1.362,1.02,2.844,1.897,4.473,2.524c0.102,0.039,0.204,0.077,0.307,0.114c1.543,0.556,3.215,0.876,4.967,0.875  c2.161,0,4.238-0.439,6.121-1.236c2.826-1.196,5.221-3.187,6.916-5.694c0.847-1.254,1.521-2.64,1.98-4.12  C72.254,43.195,72.5,41.621,72.5,40C72.5,37.837,72.061,35.76,71.264,33.878z"></path></svg>