<svg xmlns="http://www.w3.org/2000/svg" xmlns:xlink="http://www.w3.org/1999/xlink" version="1.1" x="0px" y="0px" viewBox="0 0 100 100" enable-background="new 0 0 100 100" xml:space="preserve"><path d="M68.373,72.809c0-0.273-0.039-0.537-0.115-0.784L65.58,56.509l11.504-11.234c0.727-0.709,0.986-1.77,0.672-2.734  c-0.314-0.965-1.15-1.667-2.154-1.813L59.686,38.43l-7.133-14.413c-0.448-0.909-1.375-1.484-2.389-1.484c-0.001,0-0.002,0-0.003,0  c-1.014,0.001-1.941,0.578-2.389,1.489l-7.1,14.427l-15.913,2.328c-1.004,0.147-1.837,0.851-2.15,1.816  c-0.313,0.965-0.051,2.026,0.677,2.733L34.812,56.54L32.11,72.391c-0.17,1,0.242,2.011,1.063,2.606  c0.464,0.337,1.013,0.508,1.565,0.508c0.425,0,0.852-0.103,1.242-0.308l14.225-7.495l14.243,7.467  c0.389,0.204,0.814,0.306,1.238,0.306c0.006-0.001,0.014-0.001,0.02,0C67.18,75.475,68.373,74.281,68.373,72.809z"></path><path d="M50.183,16.172c1.473,0,2.667-1.193,2.667-2.666V4.565c0-1.473-1.194-2.667-2.667-2.667s-2.666,1.193-2.666,2.667v8.941  C47.517,14.979,48.71,16.172,50.183,16.172z"></path><path d="M50.183,80.124c-1.473,0-2.666,1.193-2.666,2.666v8.941c0,1.473,1.193,2.666,2.666,2.666s2.667-1.193,2.667-2.666V82.79  C52.85,81.317,51.655,80.124,50.183,80.124z"></path><path d="M93.23,52.906h-8.939c-1.473,0-2.666,1.193-2.666,2.666s1.193,2.666,2.666,2.666h8.939c1.473,0,2.666-1.193,2.666-2.666  S94.703,52.906,93.23,52.906z"></path><path d="M18.739,55.573c0-1.473-1.193-2.666-2.667-2.666H6.769c-1.473,0-2.666,1.193-2.666,2.666s1.193,2.666,2.666,2.666h9.304  C17.546,58.239,18.739,57.046,18.739,55.573z"></path><path d="M71.656,80.905c-1.041-1.042-2.729-1.042-3.77,0c-1.041,1.04-1.041,2.729,0,3.771L80.531,97.32  c0.52,0.521,1.203,0.781,1.885,0.781s1.363-0.261,1.885-0.781c1.041-1.04,1.041-2.729,0-3.771L71.656,80.905z"></path><path d="M28.711,80.905L16.064,93.55c-1.042,1.041-1.042,2.729,0,3.771c0.521,0.521,1.203,0.781,1.885,0.781  s1.364-0.261,1.885-0.781l12.646-12.645c1.042-1.041,1.042-2.729,0-3.771C31.439,79.863,29.752,79.863,28.711,80.905z"></path><path d="M28.708,30.207c0.521,0.521,1.203,0.781,1.885,0.781s1.365-0.261,1.885-0.781c1.042-1.041,1.042-2.729,0-3.771  L19.835,13.791c-1.042-1.042-2.729-1.041-3.771,0c-1.042,1.042-1.042,2.729,0,3.771L28.708,30.207z"></path><path d="M69.77,30.988c0.682,0,1.365-0.261,1.885-0.781l12.646-12.646c1.041-1.041,1.041-2.729,0-3.771  c-1.041-1.042-2.729-1.042-3.77,0L67.885,26.437c-1.041,1.042-1.041,2.729,0,3.771C68.404,30.728,69.088,30.988,69.77,30.988z"></path></svg>