<svg xmlns="http://www.w3.org/2000/svg" xmlns:xlink="http://www.w3.org/1999/xlink" xmlns:sketch="http://www.bohemiancoding.com/sketch/ns" viewBox="0 0 90 53" version="1.1" x="0px" y="0px"><title>view</title><desc>Created with Sketch.</desc><g stroke="none" stroke-width="1" fill="none" fill-rule="evenodd" sketch:type="MSPage"><path d="M44.7956021,53 C68.8364494,53 88.805691,29.5269758 88.805691,29.5269758 C90.3676149,27.8552232 90.4114669,25.0939551 88.8549774,23.4082498 C88.8549774,23.4082498 69.8726928,0 45.0028508,0 C20.1330088,0 1.15072418,23.4082498 1.15072418,23.4082498 C-0.383979622,25.1157763 -0.392109126,27.887444 1.17762721,29.55282 C1.17762721,29.55282 20.7547549,53 44.7956021,53 L44.7956021,53 Z M45.0028508,45.2058824 C55.3042766,45.2058824 63.6552323,36.8309736 63.6552323,26.5 C63.6552323,16.1690264 55.3042766,7.79411765 45.0028508,7.79411765 C34.701425,7.79411765 26.3504693,16.1690264 26.3504693,26.5 C26.3504693,36.8309736 34.701425,45.2058824 45.0028508,45.2058824 L45.0028508,45.2058824 Z M45.0028508,34.8137255 C49.5812623,34.8137255 53.2927981,31.0915438 53.2927981,26.5 C53.2927981,21.9084562 49.5812623,18.1862745 45.0028508,18.1862745 C40.4244393,18.1862745 36.7129035,21.9084562 36.7129035,26.5 C36.7129035,31.0915438 40.4244393,34.8137255 45.0028508,34.8137255 L45.0028508,34.8137255 Z" fill="#000000" sketch:type="MSShapeGroup"></path></g></svg>