<svg xmlns="http://www.w3.org/2000/svg" xmlns:xlink="http://www.w3.org/1999/xlink" version="1.1" x="0px" y="0px" viewBox="0 0 48 48" style="enable-background:new 0 0 48 48;" xml:space="preserve"><path d="M46.105,20.731c-0.249-0.203-0.58-0.28-0.89-0.217l-3.2,0.667c-0.381,0.079-0.674,0.357-0.791,0.71  c-4.459-0.19-8.308-0.333-11.636-0.457c-20.984-0.778-20.984-0.778-25.84-7.215l-0.921-1.216c-0.277-0.364-0.754-0.509-1.189-0.363  c-0.433,0.146-0.725,0.553-0.725,1.01v18.749c0,0.459,0.292,0.865,0.725,1.012c0.112,0.037,0.228,0.057,0.342,0.057  c0.326,0,0.642-0.15,0.848-0.422l0.867-1.141c3.182-4.211,4.251-5.617,10.375-6.328c-0.744,0.986-1.191,2.209-1.191,3.537  c0,3.246,2.641,5.887,5.887,5.887h14.797c3.245,0,5.886-2.641,5.886-5.887c0-1.946-0.953-3.67-2.412-4.743  c1.335-0.062,2.725-0.127,4.188-0.2c0.11,0.372,0.409,0.668,0.808,0.745l3.198,0.622c0.069,0.014,0.138,0.02,0.204,0.02  c0.246,0,0.485-0.084,0.68-0.243c0.245-0.202,0.387-0.504,0.387-0.823v-2.933C46.498,21.237,46.354,20.934,46.105,20.731z   M37.446,29.113c0,2.144-1.743,3.887-3.886,3.887H18.764c-2.143,0-3.887-1.743-3.887-3.887s1.744-3.889,3.887-3.889h14.797  C35.703,25.225,37.446,26.97,37.446,29.113z"></path></svg>