<svg xmlns="http://www.w3.org/2000/svg" xmlns:xlink="http://www.w3.org/1999/xlink" viewBox="0 0 60 60" version="1.1" x="0px" y="0px"><title>31 -Battle Trumpet- (medieval, antique, old)</title><desc>Created with Sketch.</desc><g stroke="none" stroke-width="1" fill="none" fill-rule="evenodd"><g transform="translate(-120.000000, -710.000000)" fill="#000000"><g transform="translate(120.000000, 710.000000)"><path d="M53.7544,15.3481 C53.3914,14.9311 52.7604,14.8871 52.3434,15.2501 C51.9274,15.6121 51.8824,16.2441 52.2454,16.6601 C52.7754,17.2701 53.7324,18.7051 54.1054,19.4521 C54.2804,19.8021 54.6334,20.0041 55.0014,20.0041 C55.1514,20.0041 55.3034,19.9711 55.4474,19.8991 C55.9414,19.6511 56.1414,19.0511 55.8944,18.5571 C55.4414,17.6511 54.4014,16.0921 53.7544,15.3481"></path><path d="M56.5718,23.832 L51.5028,18.649 C49.2078,16.334 46.1108,15.008 42.9998,15.004 L42.9998,11.004 C46.1438,10.969 49.2388,9.643 51.5078,7.354 L56.5718,2.177 C58.4738,9.262 58.4738,16.747 56.5718,23.832 L56.5718,23.832 Z M38.6248,40.785 L36.5998,42.405 L36.9808,44.308 C37.0628,44.719 36.8808,45.137 36.5238,45.356 C36.1678,45.575 35.7118,45.549 35.3828,45.291 C35.3578,45.272 32.8468,43.359 29.0428,43.047 C29.3548,46.852 31.2678,49.362 31.2888,49.39 C31.5448,49.719 31.5698,50.175 31.3488,50.53 C31.1288,50.885 30.7128,51.067 30.3038,50.985 L28.4008,50.604 L26.7808,52.629 C26.5918,52.866 26.3038,53.004 25.9998,53.004 C25.6968,53.004 25.4088,52.866 25.2188,52.629 L23.5988,50.604 L21.6968,50.985 C21.2868,51.067 20.8668,50.885 20.6488,50.528 C20.4288,50.172 20.4548,49.717 20.7138,49.387 C20.7328,49.362 22.6458,46.852 22.9568,43.047 C19.1528,43.359 16.6418,45.272 16.6148,45.293 C16.2848,45.549 15.8298,45.574 15.4748,45.353 C15.1198,45.134 14.9378,44.718 15.0198,44.308 L15.3998,42.405 L13.3758,40.785 C13.1378,40.596 12.9998,40.308 12.9998,40.004 C12.9998,39.701 13.1378,39.413 13.3758,39.224 L15.3998,37.603 L15.0198,35.701 C14.9378,35.29 15.1198,34.872 15.4758,34.653 C15.8318,34.433 16.2868,34.459 16.6168,34.718 C16.6418,34.737 19.1528,36.65 22.9568,36.961 C22.6458,33.157 20.7328,30.646 20.7118,30.619 C20.4558,30.29 20.4308,29.834 20.6508,29.479 C20.8708,29.124 21.2858,28.941 21.6968,29.024 L23.5988,29.404 L25.2188,27.38 C25.5978,26.905 26.4018,26.905 26.7808,27.38 L28.4008,29.404 L30.3038,29.024 C30.7158,28.94 31.1328,29.124 31.3518,29.48 C31.5708,29.837 31.5448,30.292 31.2868,30.622 C31.2678,30.646 29.3548,33.157 29.0428,36.961 C32.8468,36.65 35.3578,34.737 35.3848,34.716 C35.7158,34.461 36.1718,34.436 36.5258,34.655 C36.8808,34.875 37.0628,35.291 36.9808,35.701 L36.5998,37.603 L38.6248,39.224 C38.8618,39.413 38.9998,39.701 38.9998,40.004 C38.9998,40.308 38.8618,40.596 38.6248,40.785 L38.6248,40.785 Z M17.9998,15.004 L20.9998,15.004 L20.9998,11.004 L17.9998,11.004 L17.9998,15.004 Z M22.9998,15.004 L28.9998,15.004 L28.9998,11.004 L22.9998,11.004 L22.9998,15.004 Z M33.7368,17.004 C32.8448,20.449 29.7198,23.004 25.9998,23.004 C22.2808,23.004 19.1548,20.449 18.2638,17.004 L20.9998,17.004 L22.9998,17.004 L28.9998,17.004 L30.9998,17.004 L33.7368,17.004 Z M30.9998,15.004 L33.9998,15.004 L33.9998,11.004 L30.9998,11.004 L30.9998,15.004 Z M6.9998,15.004 L8.9998,15.004 L8.9998,11.004 L6.9998,11.004 L6.9998,15.004 Z M1.9998,10.224 L4.9998,10.824 L4.9998,15.185 L1.9998,15.785 L1.9998,10.224 Z M58.5198,1.72 C58.4638,1.019 58.0228,0.41 57.3668,0.142 C56.6698,-0.143 55.8798,0.024 55.3528,0.563 L50.0818,5.951 C48.1908,7.86 45.6108,8.966 42.9998,9 L42.9998,6.511 C42.9998,5.129 41.8758,4.004 40.4938,4.004 L36.5068,4.004 C35.1248,4.004 33.9998,5.129 33.9998,6.511 L33.9998,9.004 L30.9998,9.004 L28.9998,9.004 L22.9998,9.004 L20.9998,9.004 L17.9998,9.004 L17.9998,6.511 C17.9998,5.129 16.8758,4.004 15.4938,4.004 L11.5068,4.004 C10.1248,4.004 8.9998,5.129 8.9998,6.511 L8.9998,9.004 L6.0988,9.004 L1.1968,8.024 C0.9018,7.964 0.5978,8.041 0.3658,8.231 C0.1338,8.421 -0.0002,8.705 -0.0002,9.004 L-0.0002,17.004 C-0.0002,17.304 0.1338,17.588 0.3658,17.778 C0.5468,17.926 0.7708,18.004 0.9998,18.004 C1.0658,18.004 1.1308,17.998 1.1968,17.985 L6.0988,17.004 L8.9998,17.004 L8.9998,50.004 L8.9998,59.004 C8.9998,59.557 9.4478,60.004 9.9998,60.004 C10.5518,60.004 10.9998,59.557 10.9998,59.004 L10.9998,51.714 L13.0298,52.856 C13.0218,52.906 12.9998,52.952 12.9998,53.004 L12.9998,59.004 C12.9998,59.557 13.4478,60.004 13.9998,60.004 C14.5518,60.004 14.9998,59.557 14.9998,59.004 L14.9998,53.964 L16.9998,55.089 L16.9998,59.004 C16.9998,59.557 17.4478,60.004 17.9998,60.004 C18.5518,60.004 18.9998,59.557 18.9998,59.004 L18.9998,56.214 L20.9998,57.339 L20.9998,59.004 C20.9998,59.557 21.4478,60.004 21.9998,60.004 C22.5518,60.004 22.9998,59.557 22.9998,59.004 L22.9998,58.464 L25.5098,59.876 C25.6618,59.961 25.8308,60.004 25.9998,60.004 C26.1688,60.004 26.3378,59.961 26.4898,59.876 L28.9998,58.464 L28.9998,59.004 C28.9998,59.557 29.4478,60.004 29.9998,60.004 C30.5518,60.004 30.9998,59.557 30.9998,59.004 L30.9998,57.339 L32.9998,56.214 L32.9998,59.004 C32.9998,59.557 33.4478,60.004 33.9998,60.004 C34.5518,60.004 34.9998,59.557 34.9998,59.004 L34.9998,55.089 L36.9998,53.964 L36.9998,59.004 C36.9998,59.557 37.4478,60.004 37.9998,60.004 C38.5518,60.004 38.9998,59.557 38.9998,59.004 L38.9998,53.004 C38.9998,52.952 38.9778,52.906 38.9698,52.856 L40.9998,51.714 L40.9998,59.004 C40.9998,59.557 41.4478,60.004 41.9998,60.004 C42.5518,60.004 42.9998,59.557 42.9998,59.004 L42.9998,50.004 L42.9998,17.005 C45.5838,17.011 48.1618,18.12 50.0778,20.053 L55.3518,25.445 C55.7078,25.81 56.1848,26.003 56.6708,26.003 C56.9048,26.003 57.1408,25.959 57.3668,25.867 C58.0228,25.599 58.4638,24.99 58.5198,24.289 C60.4908,16.904 60.4908,9.105 58.5198,1.72 L58.5198,1.72 Z"></path><path d="M34.5195,37.8081 L34.5815,37.4981 C33.0705,38.2231 30.7935,39.0041 27.9995,39.0041 C27.4475,39.0041 26.9995,38.5571 26.9995,38.0041 C26.9995,35.2101 27.7815,32.9341 28.5055,31.4231 L28.1965,31.4851 C27.8295,31.5601 27.4525,31.4211 27.2195,31.1291 L25.9995,29.6051 L24.7805,31.1291 C24.5475,31.4211 24.1725,31.5611 23.8035,31.4851 L23.4945,31.4231 C24.2185,32.9341 24.9995,35.2101 24.9995,38.0041 C24.9995,38.5571 24.5525,39.0041 23.9995,39.0041 C21.2065,39.0041 18.9295,38.2231 17.4185,37.4981 L17.4805,37.8081 C17.5535,38.1751 17.4165,38.5521 17.1245,38.7851 L15.6005,40.0041 L17.1245,41.2241 C17.4165,41.4571 17.5535,41.8341 17.4805,42.2011 L17.4185,42.5101 C18.9295,41.7861 21.2065,41.0041 23.9995,41.0041 C24.5525,41.0041 24.9995,41.4521 24.9995,42.0041 C24.9995,44.7981 24.2185,47.0751 23.4945,48.5861 L23.8035,48.5241 C23.8695,48.5111 23.9355,48.5041 23.9995,48.5041 C24.3005,48.5041 24.5885,48.6401 24.7805,48.8801 L25.9995,50.4041 L27.2195,48.8801 C27.4525,48.5881 27.8305,48.4501 28.1965,48.5241 L28.5055,48.5861 C27.7815,47.0751 26.9995,44.7981 26.9995,42.0041 C26.9995,41.4521 27.4475,41.0041 27.9995,41.0041 C30.7935,41.0041 33.0705,41.7861 34.5815,42.5101 L34.5195,42.2011 C34.4465,41.8341 34.5835,41.4571 34.8755,41.2241 L36.3995,40.0041 L34.8755,38.7851 C34.5835,38.5521 34.4465,38.1751 34.5195,37.8081"></path></g></g></g></svg>