<svg xmlns="http://www.w3.org/2000/svg" xmlns:xlink="http://www.w3.org/1999/xlink" version="1.1" x="0px" y="0px" viewBox="0 0 48 48" enable-background="new 0 0 48 48" xml:space="preserve"><g><g><g><circle fill="#000000" cx="26" cy="18.4" r="14.8"></circle></g></g><g><g><path fill="#000000" d="M26,37.8c-10.7,0-19.5-8.7-19.5-19.5c0-7.7,4.5-14.6,11.5-17.8c0.5-0.2,1.1,0,1.3,0.5     c0.2,0.5,0,1.1-0.5,1.3C12.6,5.2,8.6,11.5,8.6,18.4c0,9.6,7.8,17.5,17.5,17.5c5.3,0,10.3-2.4,13.6-6.5c0.3-0.4,1-0.5,1.4-0.1     c0.4,0.3,0.5,1,0.1,1.4C37.5,35.2,32,37.8,26,37.8z"></path></g></g><g><g><path fill="#000000" d="M38.2,33.3c-0.3,0-0.6-0.1-0.8-0.4l-22.8-29c-0.3-0.4-0.3-1.1,0.2-1.4c0.4-0.3,1.1-0.3,1.4,0.2l22.8,29     c0.3,0.4,0.3,1.1-0.2,1.4C38.6,33.2,38.4,33.3,38.2,33.3z"></path></g></g><g><g><rect x="23" y="36.6" fill="#000000" width="5.8" height="6.9"></rect></g></g><g><g><ellipse fill="#000000" cx="25.9" cy="43.4" rx="11.8" ry="4.1"></ellipse></g></g></g></svg>