<svg xmlns="http://www.w3.org/2000/svg" xmlns:xlink="http://www.w3.org/1999/xlink" version="1.1" x="0px" y="0px" viewBox="0 0 100 100" style="enable-background:new 0 0 100 100;" xml:space="preserve"><path d="M94.161,65.63c-4.855-4.854-12.072-5.938-17.984-3.257L57.961,44.158l10.186-10.186l5.073,5.073  c-1.587,1.595-1.585,4.174,0.006,5.767c0.074,0.074,0.155,0.143,0.234,0.211c0.021,0.025,0.039,0.052,0.062,0.076l7.167,7.167  c0.322,0.321,0.843,0.321,1.165-0.001l3.988-3.988c0.322-0.321,0.322-0.842,0-1.165l-4.251-4.251l1.223-1.222l4.251,4.251  c0.321,0.322,0.843,0.322,1.165-0.001l3.988-3.988c0.322-0.321,0.322-0.842,0-1.165l-4.248-4.247l1.223-1.222l4.248,4.247  c0.321,0.322,0.843,0.321,1.165,0l3.988-3.988c0.322-0.321,0.322-0.844,0.001-1.165l-7.168-7.168  c-0.044-0.044-0.092-0.081-0.143-0.113c-0.05-0.055-0.097-0.112-0.148-0.164c-1.537-1.537-3.991-1.588-5.594-0.163l-5.088-5.088  l5.23-5.23l-0.008-0.009c2.036-2.205,1.99-5.652-0.151-7.792c-2.142-2.142-5.588-2.188-7.793-0.151l-0.008-0.008L50,36.197  L22.278,8.476l-0.008,0.008c-2.205-2.036-5.652-1.99-7.793,0.151c-2.141,2.141-2.187,5.587-0.15,7.792l-0.009,0.009l5.231,5.23  l-5.089,5.088c-1.603-1.426-4.058-1.374-5.594,0.163c-0.052,0.053-0.098,0.109-0.148,0.164c-0.051,0.032-0.099,0.069-0.143,0.113  l-7.168,7.168c-0.322,0.321-0.322,0.843,0,1.165l3.988,3.988c0.322,0.321,0.844,0.321,1.165,0l4.247-4.247l1.223,1.222l-4.248,4.247  c-0.321,0.323-0.321,0.844,0.001,1.165l3.988,3.988c0.321,0.323,0.843,0.323,1.165,0l4.251-4.25l1.222,1.222l-4.251,4.251  c-0.321,0.323-0.321,0.843,0,1.165l3.988,3.988c0.322,0.322,0.843,0.322,1.166,0.001l7.167-7.167  c0.023-0.024,0.041-0.05,0.061-0.076c0.08-0.068,0.16-0.137,0.234-0.211c1.592-1.592,1.594-4.172,0.007-5.767l5.073-5.073  L42.04,44.157L23.824,62.373c-5.913-2.682-13.129-1.598-17.984,3.257c-6.254,6.254-6.254,16.433,0,22.687  c6.255,6.256,16.433,6.256,22.688,0c4.854-4.854,5.938-12.07,3.258-17.983l18.215-18.215l18.215,18.215  c-2.681,5.913-1.597,13.129,3.258,17.983c6.255,6.256,16.432,6.256,22.687,0C100.415,82.062,100.415,71.884,94.161,65.63z   M20.886,80.675c-2.044,2.044-5.359,2.044-7.403,0s-2.044-5.359,0-7.403c2.043-2.044,5.359-2.044,7.403,0  S22.93,78.631,20.886,80.675z M86.519,80.675c-2.044,2.044-5.359,2.044-7.404,0c-2.044-2.044-2.044-5.359,0.001-7.403  s5.359-2.044,7.403,0C88.562,75.315,88.562,78.631,86.519,80.675z"></path></svg>