<svg xmlns="http://www.w3.org/2000/svg" xmlns:xlink="http://www.w3.org/1999/xlink" version="1.1" x="0px" y="0px" viewBox="0 0 90 90" enable-background="new 0 0 90 90" xml:space="preserve"><path d="M81.794,2.269c-0.576-0.48-1.381-0.576-2.059-0.247l-9.406,2.839c-0.256,0.111-0.477,0.283-0.652,0.5  c-0.227,0.272-0.385,0.622-0.436,0.991c-0.076,0.641,0.18,1.287,0.68,1.701l2.414,2.021l-5.787,6.699  c1.361,0.637,2.604,1.455,3.754,2.394l5.412-6.264l2.484,2.081c0.504,0.42,1.184,0.546,1.797,0.354  c0.629-0.191,1.117-0.682,1.283-1.317l1.135-9.767C82.612,3.532,82.372,2.759,81.794,2.269z"></path><path d="M32.192,63.295c-1.114-0.854-2.256-1.778-3.413-2.789l-4.352,5.041c-0.096-0.01-0.164-0.09-0.265-0.08l-8.796,0.783  c-0.808,0.071-1.405,0.783-1.334,1.591c0.068,0.77,0.708,1.34,1.46,1.34c0.046,0,0.089,0,0.131-0.006l6.142-0.546l-1.448,1.677  c-0.061,0-0.098-0.055-0.159-0.05l-8.795,0.778c-0.806,0.07-1.404,0.777-1.333,1.586c0.067,0.77,0.709,1.344,1.462,1.344  c0.04,0,0.086,0,0.129-0.01l6-0.523l-1.382,1.596c-0.023,0.005-0.036-0.021-0.059-0.016l-8.795,0.782  C6.58,75.864,5.98,76.576,6.054,77.38c0.068,0.768,0.71,1.344,1.463,1.344c0.04,0,0.085,0,0.131-0.011l5.855-0.516l-1.536,1.778  c-0.793,0.92-0.692,2.309,0.228,3.102c0.416,0.365,0.93,0.536,1.439,0.536c0.616,0,1.232-0.253,1.667-0.759l1.536-1.777l0.511,5.754  c0.067,0.763,0.707,1.339,1.459,1.339c0.046,0,0.089,0,0.132-0.005c0.808-0.07,1.404-0.782,1.333-1.591l-0.763-8.595l1.318-1.523  l0.499,5.623c0.068,0.766,0.709,1.339,1.462,1.339c0.04,0,0.085,0,0.128-0.007c0.809-0.069,1.407-0.782,1.334-1.592l-0.748-8.461  l1.339-1.551l0.488,5.484c0.068,0.764,0.708,1.34,1.459,1.34c0.046,0,0.089,0,0.131-0.007c0.809-0.069,1.405-0.781,1.334-1.591  l-0.738-8.325L32.192,63.295z"></path><path d="M19.696,19.167c1.152-0.938,2.395-1.757,3.754-2.394l-5.785-6.699l2.412-2.021c0.5-0.414,0.756-1.061,0.68-1.701  c-0.051-0.369-0.207-0.719-0.434-0.991c-0.178-0.217-0.397-0.389-0.652-0.5l-9.407-2.839C9.584,1.693,8.78,1.789,8.206,2.269  c-0.579,0.49-0.819,1.263-0.619,1.985l1.134,9.767c0.167,0.636,0.654,1.126,1.283,1.317c0.615,0.192,1.293,0.066,1.797-0.354  l2.486-2.081L19.696,19.167z"></path><path d="M82.614,75.793l-8.795-0.782c-0.023-0.005-0.035,0.021-0.059,0.016l-1.382-1.596l5.998,0.523  c0.043,0.01,0.09,0.01,0.129,0.01c0.755,0,1.396-0.574,1.464-1.344c0.069-0.809-0.527-1.516-1.334-1.586l-8.796-0.778  c-0.062-0.005-0.1,0.05-0.157,0.05l-1.447-1.677l6.139,0.546c0.043,0.006,0.088,0.006,0.133,0.006c0.752,0,1.393-0.57,1.459-1.34  c0.072-0.808-0.525-1.52-1.334-1.591l-8.795-0.783c-0.102-0.01-0.168,0.07-0.264,0.08l-4.336-5.021  c-1.16,1.011-2.301,1.929-3.418,2.783l4.664,5.4l-0.738,8.325c-0.07,0.81,0.525,1.521,1.334,1.591  c0.043,0.007,0.086,0.007,0.131,0.007c0.752,0,1.393-0.577,1.461-1.34l0.486-5.485l1.338,1.551l-0.748,8.463  c-0.07,0.809,0.527,1.521,1.334,1.591c0.045,0.007,0.09,0.007,0.129,0.007c0.754,0,1.396-0.572,1.463-1.339l0.498-5.623l1.318,1.524  l-0.762,8.594c-0.072,0.809,0.524,1.521,1.332,1.591c0.043,0.005,0.086,0.005,0.131,0.005c0.754,0,1.393-0.576,1.461-1.339  l0.512-5.754l1.535,1.778c0.434,0.505,1.051,0.758,1.668,0.758c0.51,0,1.021-0.172,1.439-0.536c0.918-0.793,1.02-2.183,0.227-3.103  l-1.537-1.777l5.855,0.516c0.045,0.01,0.092,0.01,0.133,0.01c0.752,0,1.395-0.574,1.463-1.343  C84.019,76.576,83.421,75.864,82.614,75.793z"></path><path d="M72.606,33.355c0-7.624-6.181-13.803-13.803-13.803c-7.543,0-13.64,6.042-13.778,13.55h-0.055  c-0.138-7.508-6.239-13.55-13.771-13.55c-7.629,0-13.808,6.179-13.808,13.803c0,1.227,0.212,2.399,0.51,3.536l-0.045,0.021  c0.142,0.506,0.343,0.97,0.51,1.461c0.053,0.14,0.089,0.292,0.147,0.428C24.724,56.24,45,66.124,45,66.124S65.276,56.24,71.481,38.8  c0.06-0.136,0.097-0.288,0.15-0.434c0.166-0.485,0.369-0.949,0.51-1.455l-0.049-0.021C72.394,35.754,72.606,34.582,72.606,33.355z"></path></svg>