<svg xmlns="http://www.w3.org/2000/svg" xmlns:xlink="http://www.w3.org/1999/xlink" version="1.1" x="0px" y="0px" viewBox="0 0 100 100" enable-background="new 0 0 100 100" xml:space="preserve"><path d="M36.524,98.211c-7.812-7.439-0.372-44.639-0.372-44.639c-2.976,3.721-11.359,6.85-16.567,6.85S4.718,47.913,6.5,44  c1.387-3.047,6.024-6.724,10.308-8.283c2.662-0.969,6.324-10.043,6.324-10.043S20.9,12.282,29.828,8.934  c8.928-3.348,6.824-0.197,6.824-0.197S34.07-3.834,59.215,4.842c7.857,2.711,16.105,9.181,16.479,11.191  c-7.483-0.083-7.871,0.919-12.759,4.06c-3.958,2.543,6.695-11.904,23.806,11.532c5.127,7.021,8.52,9.285,6.936,13.509  c-3.728-2.267-11.654-1.041-19.21-10.161C63.679,21.954,103.923,48.084,95.67,61.012c-4.602,7.209-5.863,10.57-4.043,18.109  C88.931,79.168,85,60.5,70.75,69.75C53.694,80.821,36.524,98.211,36.524,98.211z"></path><path d="M37.434,13.11"></path><ellipse transform="matrix(0.9874 -0.1583 0.1583 0.9874 -4.7313 4.5983)" fill="#000000" cx="26.5" cy="32" rx="2.375" ry="1.25"></ellipse></svg>