<svg xmlns="http://www.w3.org/2000/svg" xmlns:xlink="http://www.w3.org/1999/xlink" version="1.1" x="0px" y="0px" viewBox="0 0 48 48" style="enable-background:new 0 0 48 48;" xml:space="preserve"><style type="text/css">
	.st0{fill:none;}
</style><g><path d="M12.9,22.9c2.1,0.4,5.1,0.8,7.4,0.1c1.3-0.4,2.5,0.5,2.5,1.8l0,2.5c0,2.4,1.2,3.7,2.8,3.7h0.6   c1.6,0,2.9-1.3,2.9-2.9V15.8h-8.2v-1.7c1.7-0.3,3-1.5,3-4.7c0-3.8-4.1-8.9-4.1-8.9s-4.1,5.1-4.1,8.9c0,3.2,1.3,4.4,3,4.7v1.7h-8.2   V20C10.5,21.4,11.5,22.6,12.9,22.9z"></path><path d="M42.7,33.6c-2.9,0-5.3,2.4-5.3,5.3H25.8v-6.6h-0.2c-1.9,0-4-1.5-4-4.9v-2.5c0-0.4-0.4-0.7-0.7-0.7   c-0.1,0-0.2,0-0.2,0c-0.9,0.3-2,0.4-3.2,0.4c-1.1,0-2.3-0.1-3.6-0.3v14.6H0c0,4.7,3.8,8.5,8.5,8.5H31c4.7,0,8.5-3.8,8.5-8.5h0   c0-1.7,1.4-3.2,3.2-3.2c1.7,0,3.2,1.4,3.2,3.2c0,1.7-1.4,3.2-3.2,3.2v2.2c2.9,0,5.3-2.4,5.3-5.3S45.6,33.6,42.7,33.6z"></path></g></svg>