<svg xmlns="http://www.w3.org/2000/svg" xmlns:xlink="http://www.w3.org/1999/xlink" version="1.1" x="0px" y="0px" viewBox="0 0 90 90" enable-background="new 0 0 90 90" xml:space="preserve"><g><path d="M57.7,70.7c-3.5-0.8-19-3.9-30.7-0.1c-0.5,0.2-1-0.2-1-0.6c-0.3-3.5-1.9-15.6-7.9-17.2c0,0-5.5-2.3-7.4,1.7   c-0.5,1-0.6,2.1-0.4,3.1c0.2,1.1,0.6,2.4,1.7,2.8L8.2,63c0,0-0.1-0.1-0.4-0.3c-8.6-6.4-7.3-19.2,2.6-23.8c5-2.3,12.1-2.7,21.4,3.8   c0,0-0.9-25.6,16.6-28.1c1.8-0.3,3.6-0.2,5.4,0.2c3.8,0.8,10.5,3.2,11.3,9.3h-3.9c0,0-0.7-2.1-3.7-2.5c-3.1-0.4-6,1.3-7.2,4   c-1.1,2.4-1.7,6.1-0.1,11.6c0.1,0.3,0.1,0.5,0.2,0.8c0.2,0.9,0.9,3.5,2.9,7.4c0,0,16.9-12.8,27.8-1.1c0.1,0.1,0.2,0.2,0.3,0.3   c1.1,1,9.8,10-0.1,18.6l-2.9-2.6c0,0,3.1-4.7-1.5-6c-0.2,0-0.3-0.1-0.5-0.2c-1.2-0.5-7.4-2.3-11.8,5.3l-5.5,10.3   C58.6,70.6,58.2,70.8,57.7,70.7"></path><path d="M7.2,65.3c0-3.1,2.7-5.5,5.9-5.5s5.9,2.5,5.9,5.5c0,3.1-2.7,5.5-5.9,5.5S7.2,68.4,7.2,65.3"></path><path d="M71,66c0-3.1,2.7-5.5,5.9-5.5c3.3,0,5.9,2.5,5.9,5.5s-2.7,5.5-5.9,5.5C73.7,71.5,71,69.1,71,66"></path><path d="M57,29c0-3.1,2.7-5.5,5.9-5.5c3.3,0,5.9,2.5,5.9,5.5c0,3.1-2.7,5.5-5.9,5.5C59.7,34.6,57,32.1,57,29"></path></g></svg>