<svg xmlns="http://www.w3.org/2000/svg" xmlns:xlink="http://www.w3.org/1999/xlink" version="1.1" x="0px" y="0px" viewBox="0 0 53.881 53.883" style="enable-background:new 0 0 53.881 53.883;" xml:space="preserve"><g><path d="M51.858,24.917h-3.561C47.337,14.7,39.183,6.546,28.966,5.585v-3.56C28.966,0.907,28.059,0,26.941,0   c-1.118,0-2.024,0.907-2.024,2.025v3.56C14.698,6.546,6.544,14.7,5.583,24.917H2.024C0.905,24.917,0,25.824,0,26.941   c0,1.119,0.905,2.024,2.024,2.024h3.559C6.544,39.184,14.698,47.339,24.917,48.3v3.559c0,1.117,0.906,2.024,2.024,2.024   c1.117,0,2.024-0.907,2.024-2.024V48.3c10.217-0.961,18.371-9.116,19.332-19.334h3.561c1.117,0,2.022-0.905,2.022-2.024   C53.881,25.824,52.976,24.917,51.858,24.917z M34.728,24.917c-0.188-0.729-0.477-1.416-0.85-2.05l6.711-6.711   c1.955,2.47,3.255,5.477,3.638,8.761H34.728z M26.941,30.947c-2.208,0-4.004-1.794-4.007-3.999c0-0.003,0-0.003,0-0.007   c0-0.002,0-0.003,0-0.005c0.003-2.206,1.799-4,4.007-4c2.206,0,4.003,1.794,4.005,4c0,0.002,0,0.003,0,0.005   c0,0.004,0,0.004,0,0.007C30.944,29.153,29.147,30.947,26.941,30.947z M37.725,13.294l-6.709,6.711   c-0.634-0.372-1.321-0.659-2.05-0.85V9.656C32.249,10.041,35.257,11.34,37.725,13.294z M24.917,19.155   c-0.729,0.19-1.416,0.478-2.05,0.85l-6.711-6.711c2.468-1.954,5.475-3.253,8.761-3.638V19.155z M13.292,16.156l6.713,6.711   c-0.375,0.634-0.661,1.321-0.852,2.05H9.656C10.038,21.633,11.338,18.626,13.292,16.156z M19.153,28.966   c0.19,0.729,0.477,1.416,0.85,2.05l-6.711,6.711c-1.954-2.468-3.254-5.475-3.636-8.761H19.153z M16.156,40.589l6.711-6.71   c0.634,0.374,1.321,0.66,2.05,0.851v9.497C21.631,43.844,18.624,42.545,16.156,40.589z M28.966,34.729   c0.729-0.19,1.416-0.477,2.048-0.851l6.711,6.71c-2.468,1.956-5.476,3.255-8.759,3.638V34.729z M40.589,37.727l-6.711-6.711   c0.373-0.634,0.661-1.319,0.85-2.05h9.499C43.844,32.252,42.544,35.259,40.589,37.727z"></path></g></svg>