<?xml version="1.0" encoding="utf-8"?><!DOCTYPE svg PUBLIC "-//W3C//DTD SVG 1.1//EN" "http://www.w3.org/Graphics/SVG/1.1/DTD/svg11.dtd"><svg version="1.1" xmlns="http://www.w3.org/2000/svg" xmlns:xlink="http://www.w3.org/1999/xlink" x="0px" y="0px" viewBox="0 0 100 91" enable-background="new 0 0 100 91" xml:space="preserve"><path d="M85.152,20H86c1.657,0,3-1.343,3-3s-1.343-3-3-3H53.274L53,3c0-1.657-1.343-3-3-3s-3,1.343-3,3l-0.274,11H14
	c-1.657,0-3,1.343-3,3s1.343,3,3,3h0.848L0,63c0,0,0,10,18,10s18-10,18-10L21.152,20h25.425l-0.053,2.116
	C44.998,23.204,44,24.983,44,27c0,1.909,0.895,3.607,2.285,4.706l-1.232,49.458C26.015,82.437,26,91,26,91h48
	c0,0-0.016-8.563-19.053-9.837l-1.232-49.458C55.104,30.606,56,28.909,56,27c0-2.016-0.998-3.796-2.523-4.884L53.424,20h25.424
	L64,63c0,0,0,10,18,10s18-10,18-10L85.152,20z M16,29.082V63H4.453L16,29.082z M20,63V29.082L31.547,63H20z M84,29.082L95.547,63H84
	V29.082z M80,29.082V63H68.453L80,29.082z"></path></svg>