<svg xmlns:dc="http://purl.org/dc/elements/1.1/" xmlns:cc="http://creativecommons.org/ns#" xmlns:rdf="http://www.w3.org/1999/02/22-rdf-syntax-ns#" xmlns:svg="http://www.w3.org/2000/svg" xmlns="http://www.w3.org/2000/svg" xmlns:sodipodi="http://sodipodi.sourceforge.net/DTD/sodipodi-0.dtd" xmlns:inkscape="http://www.inkscape.org/namespaces/inkscape" viewBox="0 0 100 100" version="1.1" x="0px" y="0px"><g transform="translate(0,-952.3621)"><path style="color:#000000;clip-rule:nonzero;display:inline;overflow:visible;visibility:visible;opacity:1;isolation:auto;mix-blend-mode:normal;color-interpolation:sRGB;color-interpolation-filters:linearRGB;solid-color:#000000;solid-opacity:1;fill:#000000;fill-opacity:1;fill-rule:nonzero;stroke:none;stroke-width:7;stroke-linecap:round;stroke-linejoin:miter;stroke-miterlimit:4;stroke-dasharray:none;stroke-dashoffset:0;stroke-opacity:1;marker:none;color-rendering:auto;image-rendering:auto;shape-rendering:auto;text-rendering:auto;enable-background:accumulate" d="M 49.998047 5 A 36.812909 36.621176 0 0 0 13.1875 41.623047 A 36.812909 36.621176 0 0 0 24.521484 68.041016 L 24.521484 90.337891 A 60.94549 50.856696 0 0 0 33.802734 93.126953 L 33.802734 84.351562 C 35.224263 84.704831 36.765209 85.042491 38.412109 85.34375 L 38.412109 94.039062 A 60.94549 50.856696 0 0 0 47.695312 95 L 47.695312 86.392578 C 48.456891 86.422771 49.221961 86.447266 50 86.447266 C 50.776373 86.447266 51.540659 86.42272 52.300781 86.392578 L 52.300781 94.955078 A 60.94549 50.856696 0 0 0 61.583984 94.080078 L 61.583984 85.341797 C 63.231075 85.040166 64.775262 84.703389 66.197266 84.349609 L 66.197266 93.130859 A 60.94549 50.856696 0 0 0 75.478516 90.330078 L 75.478516 68.041016 A 36.812909 36.621176 0 0 1 74.800781 68.625 A 36.812909 36.621176 0 0 0 86.8125 41.623047 A 36.812909 36.621176 0 0 0 49.998047 5 z M 36.316406 38.103516 C 37.105406 38.114016 37.905439 38.219781 38.695312 38.431641 C 43.751132 39.786001 44.995988 44.492464 43.648438 49.521484 C 42.300716 54.551484 37.110556 57.530681 32.054688 56.175781 C 26.998881 54.821181 25.566398 50.066009 26.914062 45.037109 C 28.051068 40.792989 32.055653 38.045716 36.316406 38.103516 z M 63.681641 38.103516 C 67.942395 38.044716 71.944906 40.792999 73.082031 45.037109 C 74.429697 50.066009 72.997216 54.821181 67.941406 56.175781 C 62.88554 57.530681 57.695378 54.551484 56.347656 49.521484 C 55.00005 44.492464 56.248821 39.786001 61.304688 38.431641 C 62.09462 38.219331 62.892641 38.121766 63.681641 38.103516 z M 49.998047 61.585938 C 51.349557 61.585938 57.429658 69.448366 56.753906 70.322266 C 56.078211 71.196366 43.917884 71.196366 43.242188 70.322266 C 42.566435 69.448366 48.646598 61.585938 49.998047 61.585938 z " transform="translate(0,952.3621)"></path></g></svg>