<svg xmlns="http://www.w3.org/2000/svg" xmlns:xlink="http://www.w3.org/1999/xlink" version="1.1" x="0px" y="0px" viewBox="0 0 90 90" enable-background="new 0 0 90 90" xml:space="preserve"><path d="M57.444,20.112c-4.535,0-8.783,1.219-12.444,3.338c1.924,1.114,3.682,2.481,5.235,4.05H39.765  c1.554-1.569,3.312-2.937,5.235-4.05c-3.662-2.119-7.909-3.338-12.444-3.338C18.81,20.112,7.668,31.254,7.668,45  c0,13.745,11.142,24.888,24.888,24.888c4.535,0,8.782-1.219,12.444-3.338c-1.786-1.034-3.428-2.288-4.898-3.717h9.797  c-1.471,1.429-3.112,2.683-4.898,3.717c3.661,2.119,7.909,3.338,12.444,3.338c13.746,0,24.888-11.143,24.888-24.888  C82.332,31.254,71.19,20.112,57.444,20.112z M52.766,30.5c1.129,1.569,2.081,3.271,2.824,5.083H34.411  c0.743-1.813,1.695-3.514,2.823-5.083H52.766z M33.487,51.75c-0.459-1.633-0.758-3.333-0.874-5.084h24.775  c-0.115,1.751-0.414,3.451-0.874,5.084H33.487z M55.459,54.75c-0.775,1.818-1.771,3.518-2.936,5.083H37.477  c-1.166-1.565-2.16-3.265-2.936-5.083H55.459z M32.602,43.667c0.092-1.749,0.362-3.449,0.798-5.083h23.202  c0.436,1.634,0.705,3.335,0.798,5.083H32.602z"></path></svg>