<?xml version="1.0" encoding="utf-8"?><!DOCTYPE svg PUBLIC "-//W3C//DTD SVG 1.1//EN" "http://www.w3.org/Graphics/SVG/1.1/DTD/svg11.dtd"><svg version="1.1" xmlns="http://www.w3.org/2000/svg" xmlns:xlink="http://www.w3.org/1999/xlink" x="0px" y="0px" viewBox="-4.909 12.293 100 30.739" enable-background="new -4.909 12.293 100 30.739" xml:space="preserve"><path d="M38.163,12.293c-2.086,0-4.087,0.347-5.935,0.965c2.541,1.435,4.673,3.394,6.211,5.728h13.303
	c1.523-2.315,3.638-4.266,6.146-5.69c-1.875-0.647-3.909-1.003-6.038-1.003H38.163z"></path><path d="M39.536,27.657L39.536,27.657c-0.009-8.475-7.645-15.365-17.024-15.365H12.11c-9.281,0-16.851,6.75-17.02,15.093
	l0.005,0.281c0.004,8.474,7.64,15.365,17.02,15.365h10.401c2.086,0,4.083-0.347,5.934-0.966c-2.541-1.425-4.678-3.394-6.21-5.728
	H12.115c-5.386,0-9.82-3.487-10.289-7.912H1.784v-0.769c0.005-4.781,4.641-8.671,10.326-8.671h10.401
	c5.386,0,9.825,3.478,10.289,7.912h0.042l0.005,0.759v0.01c-0.005,1.64-0.558,3.168-1.505,4.471c1.5,1.51,3.736,2.503,6.258,2.635
	c1.19-2.053,1.889-4.369,1.936-6.834V27.657z"></path><path d="M90.127,16.83c-3.225-2.925-7.505-4.537-12.061-4.537H67.665c-9.379,0-17.015,6.89-17.02,15.365l0,0v0.057
	c0.014,2.549,0.717,4.94,1.94,7.049c2.508-0.169,4.716-1.2,6.183-2.719c-0.9-1.293-1.43-2.784-1.43-4.377c0-0.01,0-0.01,0-0.01
	c0.005-4.781,4.641-8.671,10.326-8.671h10.401c5.69,0,10.326,3.891,10.331,8.671c0,4.791-4.636,8.681-10.331,8.681H67.782
	c-1.523,2.315-3.638,4.266-6.149,5.69c1.875,0.646,3.909,1.003,6.032,1.003h10.401c9.379,0,17.015-6.891,17.024-15.365
	C95.091,23.58,93.328,19.736,90.127,16.83z"></path><path d="M68.874,27.657c0-2.559-0.703-4.968-1.936-7.097c-2.508,0.169-4.72,1.2-6.188,2.719c0.9,1.294,1.425,2.785,1.43,4.378l0,0
	c0,4.791-4.631,8.681-10.326,8.681H38.163c-5.69,0-10.326-3.891-10.326-8.681l0,0c0-1.64,0.558-3.168,1.5-4.472
	c-1.5-1.5-3.736-2.494-6.253-2.625c-1.237,2.119-1.94,4.538-1.94,7.097l0,0c0,8.475,7.636,15.375,17.024,15.375h13.687
	C61.238,43.032,68.874,36.133,68.874,27.657L68.874,27.657z"></path></svg>