<svg xmlns:dc="http://purl.org/dc/elements/1.1/" xmlns:cc="http://creativecommons.org/ns#" xmlns:rdf="http://www.w3.org/1999/02/22-rdf-syntax-ns#" xmlns:svg="http://www.w3.org/2000/svg" xmlns="http://www.w3.org/2000/svg" xmlns:sodipodi="http://sodipodi.sourceforge.net/DTD/sodipodi-0.dtd" xmlns:inkscape="http://www.inkscape.org/namespaces/inkscape" version="1.1" x="0px" y="0px" viewBox="0 0 100 100"><g transform="translate(0,-952.36218)"><path style="text-indent:0;text-transform:none;direction:ltr;block-progression:tb;baseline-shift:baseline;color:#000000;enable-background:accumulate;" d="m 74.407935,958.38619 c -0.4074,0.0119 -0.8101,0.15116 -1.1372,0.39322 L 30.470734,990.486 c -0.2697,0.1998 -0.4875,0.4683 -0.627,0.7728 -0.1395,0.3045 -0.2004,0.6443 -0.1751,0.978 0.0252,0.3337 0.1365,0.6606 0.3203,0.9409 0.1837,0.2802 0.4395,0.5132 0.7362,0.6706 l 18.396301,9.754 -27.738801,39.6372 c -1.3539,2.345 0.876,3.8653 2.8991,2.6972 l 54.000001,-43.1349 c 0.2573,-0.2056 0.4624,-0.4756 0.591,-0.7781 0.1287,-0.3024 0.1808,-0.6369 0.15,-0.964 -0.0307,-0.327 -0.1441,-0.6461 -0.3269,-0.9196 -0.1828,-0.2735 -0.4345,-0.5009 -0.7257,-0.6555 l -17.5725,-9.325 15.8285,-28.82208 c 0.1681,-0.30651 0.2534,-0.65755 0.2446,-1.00668 -0.009,-0.34912 -0.1117,-0.69546 -0.2951,-0.99316 -0.1834,-0.29771 -0.4469,-0.54605 -0.7555,-0.71216 -0.3086,-0.1661 -0.6615,-0.24956 -1.0122,-0.23933 z" fill="#000000" fill-opacity="1" fill-rule="evenodd" stroke="none" marker="none" visibility="visible" display="inline" overflow="visible"></path></g></svg>