<svg xmlns="http://www.w3.org/2000/svg" xmlns:xlink="http://www.w3.org/1999/xlink" version="1.1" x="0px" y="0px" viewBox="0 0 96 96" enable-background="new 0 0 96 96" xml:space="preserve"><path d="M83.828,74.684C71.48,73,60.988,65.893,54.564,56H37.004c-1.104,0-2-0.9-2-2s0.896-2,2-2h15.24  c-0.656-1.296-1.248-2.632-1.756-4h-29.48c-1.104,0-2-0.9-2-2s0.896-2,2-2h28.213c-0.345-1.308-0.621-2.648-0.841-4H33.004  c-1.104,0-2-0.9-2-2s0.896-2,2-2h14.932c-0.052-0.848-0.12-1.696-0.12-2.556c0-10.032,3.652-19.748,10.284-27.344  c0.484-0.56,0.621-1.328,0.36-2.016c-0.252-0.688-0.868-1.18-1.592-1.28c-2.272-0.316-4.3-0.468-6.204-0.468  C25.484,2.336,5,22.82,5,48c0,25.18,20.484,45.664,45.664,45.664c13.16,0,25.695-5.721,34.4-15.684  c0.483-0.561,0.619-1.332,0.359-2.021S84.557,74.779,83.828,74.684L83.828,74.684z"></path><path d="M52.048,37.636l0.28,1.724c0.035,0.224,0.092,0.424,0.136,0.64h32.544c1.104,0,2-0.896,2-2c0-1.096-0.896-2-2-2h-33.06  L52.048,37.636L52.048,37.636z"></path><path d="M89.004,52H56.736l1.18,1.82c0.492,0.756,1.048,1.46,1.584,2.18h29.504c1.1,0,2-0.9,2-2S90.107,52,89.004,52z"></path><path d="M53.352,44l0.252,0.928l0.621,1.656c0.18,0.484,0.416,0.936,0.619,1.416H73c1.104,0,2-0.9,2-2s-0.896-2-2-2H53.352  L53.352,44z"></path></svg>