<svg xmlns="http://www.w3.org/2000/svg" xmlns:xlink="http://www.w3.org/1999/xlink" xmlns:a="http://ns.adobe.com/AdobeSVGViewerExtensions/3.0/" version="1.1" x="0px" y="0px" viewBox="-0.4 -0.1 101 101" style="enable-background:new -0.4 -0.1 101 101;" xml:space="preserve"><style type="text/css">

	.st0{fill:none;}

</style><path d="M50,76.8c-14.8,0-26.8-12-26.8-26.8c0-14.8,12-26.8,26.8-26.8s26.8,12,26.8,26.8C76.8,64.8,64.8,76.8,50,76.8L50,76.8z   M43,8.1c-0.9-1.6-0.2-2.8,1.6-2.8l10.7,0c1.8,0,2.5,1.3,1.6,2.8l-5.3,9.2c-0.9,1.6-2.4,1.6-3.3,0L43,8.1L43,8.1z M55.3,94.7H44.7  c-1.8,0-2.5-1.3-1.6-2.8l5.3-9.2c0.9-1.6,2.4-1.6,3.3,0l5.3,9.2C57.8,93.4,57.1,94.7,55.3,94.7L55.3,94.7z M91.9,43  c1.6-0.9,2.8-0.2,2.8,1.6l0,10.7c0,1.8-1.3,2.5-2.8,1.6l-9.2-5.3c-1.6-0.9-1.6-2.4,0-3.3L91.9,43L91.9,43z M8.1,57  c-1.6,0.9-2.8,0.2-2.8-1.6V44.7c0-1.8,1.3-2.5,2.8-1.6l9.2,5.3c1.6,0.9,1.6,2.3,0,3.3L8.1,57L8.1,57z M74.7,15.5  c0.5-1.7,1.9-2.1,3.2-0.9l7.5,7.5c1.3,1.3,0.9,2.7-0.8,3.2l-10.3,2.7c-1.7,0.5-2.8-0.6-2.3-2.3L74.7,15.5L74.7,15.5z M22.2,85.4  l-7.5-7.5c-1.3-1.3-0.9-2.7,0.8-3.1l10.3-2.8c1.7-0.5,2.8,0.6,2.3,2.3l-2.8,10.3C24.8,86.3,23.4,86.6,22.2,85.4L22.2,85.4z   M84.5,74.7c1.7,0.5,2.1,1.9,0.8,3.1l-7.5,7.5c-1.3,1.3-2.7,0.9-3.2-0.9l-2.8-10.3c-0.5-1.7,0.6-2.8,2.3-2.3L84.5,74.7L84.5,74.7z   M15.5,25.3c-1.7-0.5-2.1-1.9-0.8-3.1l7.5-7.5c1.3-1.3,2.7-0.9,3.1,0.8l2.8,10.3c0.5,1.7-0.6,2.8-2.3,2.3L15.5,25.3L15.5,25.3z"></path><rect class="st0" width="100" height="100"></rect></svg>