<svg xmlns="http://www.w3.org/2000/svg" xmlns:xlink="http://www.w3.org/1999/xlink" version="1.1" x="0px" y="0px" viewBox="0 0 100 100" enable-background="new 0 0 100 100" xml:space="preserve"><path d="M82.673,53.025c3.196-1.84,5.493-3.965,6.98-5.758c2.918-3.519,3.858-6.458,2.76-7.562  c-1.185-0.614-4.618,3.091-12.797,7.132c-3.16,1.554-7.348,3.091-12.237,3.44c0.001-0.093,0.014-0.184,0.014-0.278  c0-0.635-0.039-1.261-0.105-1.879c5.849-0.901,11.392-3.789,15.314-7.828c0.175-0.181,0.348-0.364,0.519-0.553  c-0.246-0.054-0.493-0.109-0.741-0.16c-5.517-1.116-11.72-0.365-17.054,2.197c-0.342-0.637-0.732-1.242-1.148-1.828  c4.231-2.476,8.554-3.577,12.04-4.081c9.032-1.29,13.957-0.174,14.588-1.35c0.281-1.531-2.156-3.424-6.553-4.679  c-2.24-0.636-5.336-1.092-9.011-0.804c0.958-3.558,1.079-6.684,0.864-9.005c-0.425-4.553-1.838-7.295-3.395-7.3  c-1.272,0.403-1.08,5.452-4.007,14.092c-1.133,3.333-3.009,7.381-6.219,11.085c-0.501-0.517-1.032-1.004-1.593-1.456  c3.5-4.774,5.379-10.738,5.295-16.368c-0.003-0.251-0.01-0.506-0.022-0.757c-0.214,0.133-0.427,0.27-0.638,0.41  c-4.69,3.113-8.545,8.031-10.505,13.615c-0.684-0.206-1.389-0.359-2.105-0.48c1.241-4.745,3.52-8.581,5.63-11.403  c5.473-7.297,9.745-9.991,9.359-11.269c-0.884-1.281-3.946-0.895-7.942,1.325c-2.034,1.133-4.546,3.002-6.941,5.804  c-1.839-3.195-3.964-5.492-5.756-6.98c-3.519-2.917-6.46-3.858-7.563-2.759c-0.614,1.185,3.091,4.619,7.13,12.796  c1.557,3.16,3.093,7.348,3.441,12.237c-0.094-0.001-0.184-0.014-0.278-0.014c-0.635,0-1.262,0.039-1.879,0.105  c-0.902-5.848-3.789-11.392-7.827-15.313c-0.182-0.177-0.366-0.348-0.552-0.519c-0.056,0.245-0.111,0.491-0.162,0.741  c-1.115,5.517-0.364,11.72,2.198,17.053c-0.637,0.342-1.242,0.732-1.828,1.148c-2.476-4.231-3.576-8.554-4.08-12.039  c-1.289-9.031-0.174-13.957-1.349-14.59c-1.532-0.28-3.427,2.157-4.68,6.555c-0.636,2.241-1.092,5.337-0.804,9.012  c-3.559-0.96-6.687-1.08-9.004-0.865c-4.554,0.424-7.298,1.838-7.302,3.395c0.406,1.272,5.452,1.08,14.093,4.008  c3.333,1.133,7.38,3.008,11.084,6.217c-0.517,0.501-1.004,1.032-1.456,1.593c-4.774-3.5-10.736-5.379-16.366-5.297  c-0.254,0.004-0.506,0.013-0.757,0.023c0.132,0.215,0.269,0.427,0.408,0.639c3.113,4.691,8.032,8.547,13.615,10.506  c-0.206,0.683-0.358,1.388-0.48,2.104c-4.744-1.24-8.58-3.519-11.4-5.63c-7.299-5.471-9.993-9.744-11.271-9.359  c-1.283,0.884-0.898,3.949,1.324,7.942c1.134,2.036,3.002,4.549,5.806,6.942c-3.197,1.838-5.493,3.963-6.981,5.755  c-2.919,3.519-3.859,6.459-2.76,7.563c1.185,0.613,4.618-3.091,12.797-7.13c3.159-1.556,7.347-3.092,12.236-3.442  c-0.001,0.093-0.014,0.184-0.014,0.278c0,0.635,0.039,1.261,0.105,1.879c-5.849,0.901-11.392,3.789-15.313,7.829  c-0.177,0.181-0.349,0.366-0.519,0.551c0.246,0.057,0.49,0.11,0.74,0.161c5.517,1.115,11.72,0.365,17.054-2.196  c0.342,0.636,0.732,1.242,1.148,1.827c-4.231,2.475-8.554,3.576-12.039,4.078c-9.031,1.291-13.956,0.175-14.588,1.35  c-0.281,1.532,2.157,3.426,6.552,4.681c2.24,0.637,5.337,1.092,9.012,0.802c-0.958,3.56-1.08,6.686-0.866,9.006  c0.427,4.553,1.84,7.296,3.398,7.301c1.271-0.405,1.079-5.455,4.006-14.093c1.134-3.333,3.009-7.38,6.219-11.084  c0.501,0.517,1.032,1.004,1.594,1.456c-3.5,4.773-5.379,10.736-5.296,16.366c0.003,0.254,0.011,0.506,0.022,0.756v0.002  c0.215-0.134,0.427-0.27,0.638-0.41c4.689-3.114,8.545-8.031,10.506-13.615c0.684,0.206,1.389,0.359,2.105,0.48  c-1.241,4.745-3.521,8.582-5.629,11.402c-5.473,7.297-9.746,9.992-9.362,11.271c0.884,1.281,3.948,0.898,7.942-1.327  c2.035-1.132,4.547-3.001,6.942-5.804c1.838,3.197,3.964,5.494,5.755,6.979c3.52,2.92,6.46,3.859,7.563,2.763  c0.614-1.187-3.091-4.62-7.13-12.797c-1.556-3.16-3.093-7.348-3.441-12.237c0.093,0.001,0.184,0.014,0.277,0.014  c0.635,0,1.262-0.039,1.879-0.105c0.902,5.849,3.79,11.392,7.828,15.311c0.182,0.178,0.366,0.351,0.551,0.518l0.002,0.005  c0.057-0.246,0.111-0.494,0.162-0.742c1.115-5.517,0.364-11.72-2.197-17.054c0.637-0.342,1.242-0.732,1.828-1.148  c2.476,4.231,3.577,8.555,4.081,12.041c1.29,9.03,0.174,13.955,1.349,14.588c1.532,0.281,3.426-2.157,4.679-6.554  c0.637-2.239,1.092-5.335,0.804-9.01c3.558,0.957,6.687,1.078,9.005,0.863c4.553-0.424,7.297-1.84,7.301-3.395  c-0.406-1.273-5.451-1.081-14.092-4.005c-3.334-1.136-7.381-3.011-11.085-6.221c0.517-0.501,1.004-1.032,1.456-1.593  c4.774,3.501,10.737,5.379,16.368,5.296c0.253-0.004,0.506-0.011,0.757-0.023c-0.132-0.214-0.27-0.425-0.41-0.637  c-3.113-4.689-8.031-8.545-13.615-10.506c0.206-0.684,0.359-1.389,0.48-2.105c4.744,1.24,8.581,3.519,11.401,5.629  c7.3,5.473,9.993,9.745,11.27,9.359c1.284-0.882,0.898-3.947-1.323-7.942C87.344,57.932,85.476,55.419,82.673,53.025z M50,59.667  c-5.339,0-9.667-4.328-9.667-9.667s4.328-9.667,9.667-9.667s9.667,4.328,9.667,9.667S55.339,59.667,50,59.667z"></path></svg>