<svg xmlns:dc="http://purl.org/dc/elements/1.1/" xmlns:cc="http://creativecommons.org/ns#" xmlns:rdf="http://www.w3.org/1999/02/22-rdf-syntax-ns#" xmlns:svg="http://www.w3.org/2000/svg" xmlns="http://www.w3.org/2000/svg" xmlns:sodipodi="http://sodipodi.sourceforge.net/DTD/sodipodi-0.dtd" xmlns:inkscape="http://www.inkscape.org/namespaces/inkscape" viewBox="0 0 100 100" version="1.1" x="0px" y="0px"><g transform="translate(0,-952.36216)"><path style="opacity:1;fill:#000000;fill-opacity:1;stroke:none;stroke-width:14.5;stroke-linecap:round;stroke-linejoin:bevel;stroke-miterlimit:4;stroke-dasharray:none;stroke-dashoffset:288.50640869;stroke-opacity:1" d="m 34.271426,959.00311 0,35.775 0,19.82609 31.45715,0 0,-50.44099 0,-5.1601 -5.16008,0 0,5.1601 -7.98847,0 0,-5.1601 -5.16007,0 0,5.1601 -7.98846,0 0,-5.1601 -5.16007,0 z m -9.36018,47.12379 a 6.7309327,6.7309327 0 0 0 -4.71052,1.9714 6.7309327,6.7309327 0 0 0 -1.45883,7.3352 6.7309327,6.7309327 0 0 0 5.20939,4.0723 l 0,4.9121 0,9.7432 0,11.5601 7.74011,0 0,-11.5601 0,-9.7432 0,-11.5601 a 6.7309327,6.7309327 0 0 0 -4.15513,-6.2187 6.7309327,6.7309327 0 0 0 -2.62502,-0.5122 z m 50.177512,0 a 6.7309327,6.7309327 0 0 0 -2.62502,0.5122 6.7309327,6.7309327 0 0 0 -4.155132,6.2187 l 0,11.5601 0,9.7432 0,11.5601 7.74011,0 0,-11.5601 0,-9.7432 0,-4.9121 a 6.7309327,6.7309327 0 0 0 5.209387,-4.0723 6.7309327,6.7309327 0 0 0 -1.458826,-7.3352 6.7309327,6.7309327 0 0 0 -4.710519,-1.9714 z m -40.817332,11.0573 0,5.1601 31.45715,0 0,-5.1601 -31.45715,0 z m 0,7.7401 0,20.7969 31.45715,0 0,-20.7969 -31.45715,0 z"></path></g></svg>