<svg xmlns="http://www.w3.org/2000/svg" xmlns:xlink="http://www.w3.org/1999/xlink" viewBox="0 0 60 44" version="1.1" x="0px" y="0px"><title>22 -Movie Award- (video, film, cinema, movie)</title><desc>Created with Sketch.</desc><g stroke="none" stroke-width="1" fill="none" fill-rule="evenodd"><g transform="translate(-240.000000, -595.000000)" fill="#000000"><g transform="translate(240.000000, 595.000000)"><path d="M34.1689,35.3452 L38.6249,31.7812 C38.9499,31.5202 39.0799,31.0862 38.9509,30.6902 C38.8219,30.2942 38.4609,30.0202 38.0449,30.0012 L32.6699,29.7582 L30.9469,24.6782 C30.8089,24.2732 30.4279,24.0002 29.9999,24.0002 C29.5719,24.0002 29.1909,24.2732 29.0529,24.6782 L27.3299,29.7582 L21.9549,30.0012 C21.5389,30.0202 21.1779,30.2942 21.0489,30.6902 C20.9199,31.0862 21.0499,31.5202 21.3759,31.7812 L25.8309,35.3452 L24.0509,40.6832 C23.9119,41.1032 24.0639,41.5652 24.4259,41.8192 C24.7889,42.0722 25.2739,42.0572 25.6209,41.7832 L29.9999,38.3112 L34.3789,41.7832 C34.5599,41.9272 34.7799,42.0002 34.9999,42.0002 C35.1999,42.0002 35.4009,41.9402 35.5739,41.8192 C35.9359,41.5652 36.0879,41.1032 35.9489,40.6832 L34.1689,35.3452 Z"></path><path d="M13.0618,30.5498 C13.1028,30.5508 13.1448,30.5578 13.1858,30.5578 C16.2968,30.5578 19.1438,28.4648 19.9618,25.3178 L20.9678,21.4458 C21.1068,20.9108 20.7858,20.3648 20.2518,20.2268 C18.4438,19.7558 16.5578,20.0178 14.9448,20.9668 C13.3758,21.8888 12.2518,23.3548 11.7598,25.1008 C11.6988,24.5108 11.6608,23.9428 11.6498,23.4088 C11.6018,21.2688 11.8978,19.1678 12.4958,17.1788 L15.7418,18.2868 C16.4838,18.5398 17.2468,18.6648 18.0078,18.6648 C19.0638,18.6648 20.1128,18.4238 21.0888,17.9448 C22.7668,17.1198 24.0238,15.6908 24.6268,13.9208 C24.7128,13.6698 24.6948,13.3948 24.5778,13.1568 C24.4618,12.9188 24.2548,12.7378 24.0038,12.6518 L20.2168,11.3608 C18.5338,10.7858 16.7758,10.9148 15.1798,11.6378 C15.9138,10.5908 16.7458,9.6108 17.6848,8.7288 C18.0878,8.3508 18.1068,7.7178 17.7288,7.3158 C17.3508,6.9128 16.7168,6.8938 16.3158,7.2708 C15.8538,7.7048 15.4178,8.1638 14.9998,8.6358 L14.9998,7.5938 C14.9998,3.7338 11.8598,0.5938 7.9998,0.5938 C7.4478,0.5938 6.9998,1.0418 6.9998,1.5938 L6.9998,5.5938 C6.9998,8.8848 9.2858,11.6448 12.3518,12.3898 C11.4998,13.9318 10.8408,15.5828 10.3848,17.3038 L10.2358,16.6998 C9.3088,12.9528 5.5068,10.6548 1.7598,11.5858 C1.5028,11.6488 1.2808,11.8128 1.1438,12.0398 C1.0068,12.2668 0.9658,12.5388 1.0288,12.7968 L1.9898,16.6798 C2.7778,19.8638 5.6418,21.9998 8.7858,21.9998 C9.0798,21.9998 9.3768,21.9778 9.6738,21.9398 C9.6508,22.4418 9.6388,22.9458 9.6498,23.4528 C9.6648,24.1498 9.7178,24.8978 9.8118,25.6808 C7.5858,22.8428 3.5068,22.1388 0.4478,24.1638 C0.2268,24.3098 0.0728,24.5388 0.0198,24.7988 C-0.0332,25.0578 0.0198,25.3288 0.1658,25.5498 L2.3738,28.8848 C3.4058,30.4448 4.9838,31.5078 6.8158,31.8808 C7.2848,31.9758 7.7568,32.0238 8.2248,32.0238 C9.2608,32.0238 10.2778,31.7898 11.2168,31.3408 C11.7488,32.7378 12.4498,34.1908 13.3518,35.6748 C10.0958,34.1358 6.1368,35.3268 4.3038,38.5008 C4.0278,38.9798 4.1918,39.5908 4.6698,39.8668 L8.1338,41.8668 C9.2338,42.5018 10.4358,42.8028 11.6218,42.8028 C13.6128,42.8028 15.5518,41.9428 16.9008,40.3938 C17.9148,41.5158 19.0468,42.6398 20.3478,43.7578 C20.5368,43.9208 20.7688,43.9998 20.9998,43.9998 C21.2808,43.9998 21.5608,43.8818 21.7578,43.6518 C22.1178,43.2328 22.0708,42.6018 21.6518,42.2418 C16.9998,38.2428 14.4308,34.1838 13.0618,30.5498"></path><path d="M59.98,24.7983 C59.927,24.5383 59.773,24.3103 59.552,24.1633 C56.492,22.1393 52.414,22.8433 50.188,25.6803 C50.282,24.8973 50.335,24.1503 50.35,23.4533 C50.361,22.9463 50.349,22.4423 50.326,21.9393 C50.623,21.9773 50.92,21.9993 51.214,21.9993 C54.357,21.9993 57.223,19.8643 58.01,16.6793 L58.971,12.7963 C59.035,12.5383 58.993,12.2663 58.856,12.0393 C58.719,11.8123 58.498,11.6493 58.24,11.5853 C54.491,10.6593 50.692,12.9533 49.764,16.6993 L49.615,17.3033 C49.159,15.5833 48.501,13.9323 47.649,12.3893 C50.714,11.6453 53,8.8843 53,5.5933 L53,1.5933 C53,1.0413 52.552,0.5933 52,0.5933 C48.14,0.5933 45,3.7343 45,7.5933 L45,8.6353 C44.582,8.1633 44.147,7.7053 43.685,7.2713 C43.283,6.8943 42.649,6.9133 42.271,7.3153 C41.893,7.7173 41.913,8.3503 42.315,8.7293 C43.255,9.6113 44.087,10.5923 44.821,11.6403 C43.225,10.9153 41.467,10.7863 39.783,11.3603 L35.997,12.6523 C35.746,12.7373 35.539,12.9193 35.422,13.1573 C35.305,13.3953 35.287,13.6703 35.373,13.9213 C35.977,15.6913 37.233,17.1193 38.911,17.9443 C39.887,18.4233 40.937,18.6653 41.992,18.6653 C42.753,18.6653 43.517,18.5393 44.258,18.2863 L47.504,17.1793 C48.102,19.1683 48.398,21.2683 48.351,23.4093 C48.339,23.9433 48.301,24.5113 48.24,25.1013 C47.748,23.3543 46.624,21.8883 45.055,20.9663 C43.442,20.0193 41.558,19.7573 39.749,20.2263 C39.214,20.3653 38.893,20.9113 39.032,21.4453 L40.038,25.3173 C40.856,28.4653 43.704,30.5573 46.814,30.5573 C46.855,30.5573 46.897,30.5503 46.938,30.5493 C45.57,34.1843 43,38.2423 38.348,42.2413 C37.929,42.6013 37.882,43.2333 38.242,43.6523 C38.439,43.8813 38.719,44.0003 39.001,44.0003 C39.231,44.0003 39.463,43.9203 39.652,43.7583 C40.953,42.6403 42.085,41.5153 43.099,40.3933 C44.449,41.9423 46.387,42.8033 48.378,42.8033 C49.564,42.8033 50.767,42.5023 51.866,41.8673 L55.33,39.8673 C55.809,39.5903 55.972,38.9793 55.696,38.5013 C53.864,35.3283 49.905,34.1373 46.649,35.6753 C47.55,34.1913 48.251,32.7383 48.783,31.3403 C49.722,31.7893 50.739,32.0233 51.775,32.0233 C52.243,32.0233 52.715,31.9763 53.184,31.8813 C55.016,31.5073 56.594,30.4443 57.626,28.8843 L59.834,25.5493 C59.98,25.3283 60.033,25.0583 59.98,24.7983"></path></g></g></g></svg>