<svg xmlns="http://www.w3.org/2000/svg" xmlns:xlink="http://www.w3.org/1999/xlink" version="1.1" x="0px" y="0px" viewBox="0 0 24 24" enable-background="new 0 0 24 24" xml:space="preserve"><path d="M21.8,11.3c0-0.1,0.1-0.1,0.2-0.2c0.1-0.2,0.1-0.5-0.1-0.6c-0.1-0.2-0.3-0.3-0.5-0.4c-0.4-0.3-0.9-0.6-1.3-0.9  c-0.3-0.2-0.6-0.5-0.9-0.8c-0.3-0.3-0.5-0.6-0.7-1c-0.7-0.9-1.8-1.5-3-1.7c0-0.2,0.2-0.4,0.4-0.5c0.5-0.1,0.9-0.1,1.4,0  c0.4,0.1,0.9,0.3,1.1,0.7c0.1-0.4,0.2-0.8,0-1.2c-0.2-0.5-0.8-0.7-1.2-0.8c0.5,0.1,1,0.1,1.4-0.2c0.3-0.2,0.4-0.6,0.6-1  c-0.3,0.3-0.8,0.4-1.2,0.2c-0.4-0.2-0.7-0.5-1.1-0.7c-0.9-0.5-2.2-0.4-3,0.3c0-0.4-0.5-0.7-0.9-0.7H9C8.1,2.1,7.2,2.4,6.5,2.9  c0.4,0,0.8,0.1,1.1,0.3c-1.1,0.1-2.3,0.3-3.1,1C3.9,4.8,3.5,5.6,3.1,6.4C3,6.9,2.8,7.4,2.3,7.7c0.4,0.1,0.9,0.1,1.3,0  C3,8.1,2.6,8.7,2.4,9.4c-0.1,0.4-0.2,0.8-0.2,1.2C2.1,11,2,11.5,2,11.9c0.3-0.1,0.5-0.3,0.7-0.6c0.1,0.3,0,0.7-0.1,1  c-0.1,0.3-0.3,0.6-0.4,1C2,13.8,2,14.4,2.1,14.9c0,0.7,0.1,1.4,0.1,2.1c0.3-0.4,0.5-0.7,0.7-1c0,0.4,0,0.8,0.1,1.2  C3,17.8,3,18.5,2.7,19c-0.1,0.2-0.3,0.4-0.4,0.7c-0.1,0.2-0.2,0.5-0.1,0.8c0.2,0,0.3-0.1,0.4-0.1c0.2,0,0.5-0.1,0.7-0.2  c0.4-0.2,0.7-0.7,1-1.1c0,0.2,0,0.4,0.1,0.6c0.1,0.4,0.1,0.8,0.1,1.2c0,0.4-0.1,0.8-0.4,1.1c0.6,0,1.1,0.1,1.6-0.2  c0.4-0.2,0.7-0.5,0.9-0.8c0.5-0.7,0.8-1.7,0.7-2.6c0.1-0.1,0.2-0.1,0.2,0c0.2,0.2,0.3,0.4,0.4,0.6C8,19.2,8,19.4,8.1,19.6  c0.1,0.5,0.4,0.8,0.8,1.2c0.3,0.3,0.5,0.6,0.6,1c0.1-0.2,0.4-0.3,0.6-0.4c0.8-0.2,1.5-0.6,2.1-1.2c0.6-0.6,0.9-1.4,0.9-2.2  c-0.1-0.1-0.2-0.3-0.2-0.4c0-0.1,0.1-0.3,0.2-0.3c0.1,0,0.1,0,0.1,0.1c0.2,0.2,0.4,0.4,0.4,0.6c0.1,0.2,0.1,0.5,0.2,0.7  c0.1-0.1,0.3-0.2,0.4-0.3c0.2-0.2,0.4-0.3,0.5-0.5c0.4-0.5,0.5-1.2,0.2-1.8c-0.1-0.1-0.1-0.3-0.2-0.4c0-0.2,0-0.3,0.1-0.5  c0.1,0.2,0.3,0.4,0.5,0.4c-0.1-0.3,0.1-0.7,0.3-0.9c0.1-0.1,0.2-0.1,0.2-0.2c0.2-0.2,0.3-0.4,0.3-0.6l0-0.1c0.9,0.2,1.8,0.5,2.5,1.1  c0.4,0.3,0.5,0.6,1,0.5c0.2,0,0.8-0.6,1-0.7c0.1-0.1,0.2-0.1,0.3-0.2c0.2-0.2,0.1-0.6-0.1-0.8c-0.2-0.2-1.1,0-1.4,0.1  c-0.2,0-1.4-0.4-0.6-0.9c0.2-0.1,0.4-0.2,0.6-0.2c0.3,0,0.6,0.1,0.9,0.2c0.3,0.2,0.3,0.2,0.7,0.1c0.4,0,0.7-0.4,0.6-0.8  C21.6,11.8,21.6,11.7,21.8,11.3z M18.2,9.1c-0.1,0.1-0.2,0.1-0.3,0.1c-0.1,0-0.2-0.1-0.3-0.2c0-0.1-0.1-0.1-0.1-0.2c0,0-0.1,0-0.1,0  c-0.2,0-0.5,0-0.7-0.1c-0.2,0-0.5-0.1-0.6-0.3l0-0.1c0.2,0,0.5,0,0.7,0c0.2,0,0.5-0.1,0.7-0.3c0.1,0,0.1-0.1,0.2-0.1  c0.1,0,0.1,0,0.2,0c0,0.1,0,0.2,0,0.3c0,0.1,0.1,0.2,0.2,0.3C18,8.6,18,8.8,18.2,9C18.2,9,18.2,9,18.2,9.1  C18.2,9.1,18.2,9.1,18.2,9.1z"></path></svg>