<svg fill="#FFFFFF" xmlns="http://www.w3.org/2000/svg" xmlns:xlink="http://www.w3.org/1999/xlink" version="1.1" x="0px" y="0px" viewBox="0 0 100 100" enable-background="new 0 0 100 100" xml:space="preserve"><g><path d="M71.2,14.8l-8.4,12.4l-12.6,3.7l-12.5-3.7l-8.5-12.3l-8.4,12.4L6.4,31.5l9.1,11.9l-0.4,15l14.1-5L41,57.4l-13.6,4l9.1,11.9   l-0.4,15l14.1-5l14.1,5l-0.4-15l9.1-11.9l-13.6-4l11.8-4.2l14.1,5l-0.4-15l9.1-11.9l-14.4-4.2L71.2,14.8z M57.3,55l-7-10.2l-7,10.2   L43,43.3l7.3-9.5l7.3,9.5L57.3,55z M29.3,50.1l-11,3.9l0.3-11.7l-7.1-9.2l11.2-3.3l6.6-9.6l6.6,9.6L47,33.1l-7.1,9.2L40.3,54   L29.3,50.1z M61,72.3l0.3,11.7l-11-3.9l-11,3.9l0.3-11.7l-7.1-9.2l11.2-3.3l6.6-9.6l6.6,9.6L68.1,63L61,72.3z M81.9,42.3l0.3,11.7   l-11-3.9l-11,3.9l0.3-11.7L53.5,33l11.2-3.3l6.6-9.6l6.6,9.6L89,33L81.9,42.3z"/><path d="M44.3,33.8l-9.4-2.8L29.3,23l-5.5,8.1l-9.4,2.8l6,7.8L20,51.5l9.3-3.3l9.3,3.3l-0.3-9.8L44.3,33.8z M29.3,46.1l-7.2,2.6   l0.2-7.6l-4.7-6l7.3-2.2l4.3-6.3l4.3,6.3l7.3,2.1l-4.6,6l0.2,7.6L29.3,46.1z"/><path d="M71.3,22.9L65.7,31l-9.4,2.8l6,7.8L62,51.4l9.3-3.3l9.3,3.3l-0.3-9.8l6-7.8L76.8,31L71.3,22.9z M78.2,40.9l0.2,7.6L71.3,46   l-7.2,2.6l0.2-7.6l-4.7-6l7.3-2.2l4.3-6.3l4.3,6.3l7.3,2.1L78.2,40.9z"/><path d="M50.3,52.9l-5.5,8.1l-9.4,2.8l6,7.8l-0.3,9.8l9.3-3.3l9.3,3.3l-0.3-9.8l6-7.8L55.9,61L50.3,52.9z M57.3,70.9l0.2,7.6   L50.3,76l-7.2,2.6l0.2-7.6l-4.7-6l7.3-2.2l4.3-6.3l4.3,6.3l7.3,2.1L57.3,70.9z"/></g></svg>